<svg xmlns="http://www.w3.org/2000/svg" viewBox="0 0 512 512">
  <defs>
    <linearGradient id="grad1" x1="0%" y1="0%" x2="100%" y2="100%">
      <stop offset="0%" style="stop-color:#2563eb;stop-opacity:1" />
      <stop offset="100%" style="stop-color:#4f46e5;stop-opacity:1" />
    </linearGradient>
  </defs>

  <rect x="0" y="0" width="512" height="512" rx="112" ry="112" fill="url(#grad1)" />

  <g transform="translate(256 272) scale(1.09) translate(-256 -272)">
    <path d="M352 112H160c-17.7 0-32 14.3-32 32v88h256v-88c0-17.7-14.3-32-32-32z" fill="#ffffff" fill-opacity="0.92"/>
    <path d="M384 200H128c-35.3 0-64 28.7-64 64v112c0 35.3 28.7 64 64 64h32v-56h192v56h32c35.3 0 64-28.7 64-64V264c0-35.3-28.7-64-64-64zm-64 80c-13.3 0-24-10.7-24-24s10.7-24 24-24 24 10.7 24 24-10.7 24-24 24z" fill="#ffffff"/>
    <path d="M160 352h192v88H160z" fill="#e0e7ff"/>
    <rect x="180" y="370" width="152" height="12" rx="4" fill="#2563eb" fill-opacity="0.32"/>
    <rect x="180" y="392" width="152" height="12" rx="4" fill="#2563eb" fill-opacity="0.32"/>
    <rect x="180" y="414" width="100" height="12" rx="4" fill="#2563eb" fill-opacity="0.32"/>
  </g>
</svg>
